<?xml version="1.0" standalone="no"?>
<!DOCTYPE svg PUBLIC "-//W3C//DTD SVG 20010904//EN"
 "http://www.w3.org/TR/2001/REC-SVG-20010904/DTD/svg10.dtd">
<svg version="1.0" xmlns="http://www.w3.org/2000/svg"
 width="100.000000pt" height="100.000000pt" viewBox="0 0 100.000000 100.000000"
 preserveAspectRatio="xMidYMid meet">

<g transform="translate(0.000000,100.000000) scale(0.100000,-0.100000)"
fill="#000000" stroke="none">
<path d="M577 932 c-51 -51 -56 -60 -43 -72 9 -7 16 -19 16 -27 0 -21 -29 -27
-48 -10 -16 14 -36 -3 -260 -221 -142 -139 -242 -244 -242 -255 0 -10 20 -39
44 -65 40 -42 46 -45 68 -35 96 49 181 -33 136 -132 -10 -23 -8 -29 27 -65 25
-26 48 -40 65 -40 20 0 77 52 263 238 207 208 236 240 223 251 -9 8 -16 20
-16 28 0 21 29 27 49 9 17 -15 21 -12 79 48 34 35 62 69 62 76 0 6 -20 32 -44
58 -41 43 -46 45 -70 34 -93 -42 -176 41 -134 133 10 23 8 29 -27 65 -55 56
-77 54 -148 -18z m35 -149 c24 -21 24 -53 0 -53 -25 0 -56 35 -49 55 8 20 26
19 49 -2z m88 -88 c22 -24 23 -26 7 -42 -16 -16 -19 -16 -44 9 -22 23 -24 29
-13 42 17 21 23 20 50 -9z m82 -82 c22 -20 23 -42 3 -50 -20 -7 -55 24 -55 49
0 23 27 24 52 1z m-238 -55 l-6 -63 53 -32 54 -31 -62 -12 -62 -12 -13 -62
-14 -61 -30 52 -29 53 -65 0 -64 0 42 43 43 44 -25 56 c-14 32 -20 57 -15 57
5 0 27 -9 49 -20 52 -26 55 -26 103 15 22 19 42 35 44 35 2 0 1 -28 -3 -62z"/>
</g>
</svg>
